<?xml version="1.0" standalone="no"?>
<!DOCTYPE svg PUBLIC "-//W3C//DTD SVG 20010904//EN"
 "http://www.w3.org/TR/2001/REC-SVG-20010904/DTD/svg10.dtd">
<svg version="1.0" xmlns="http://www.w3.org/2000/svg"
 width="512.000000pt" height="512.000000pt" viewBox="0 0 512.000000 512.000000"
 preserveAspectRatio="xMidYMid meet">
<metadata>
Created by potrace 1.14, written by Peter Selinger 2001-2017
</metadata>
<g transform="translate(0.000000,512.000000) scale(0.100000,-0.100000)"
fill="#000000" stroke="none">
<path d="M2470 4085 c-6 -7 -13 -24 -16 -36 -13 -58 -25 -115 -27 -131 -1 -10
-4 -18 -7 -18 -3 0 -6 -18 -8 -40 -2 -30 2 -41 17 -50 11 -5 26 -8 33 -5 7 2
24 7 38 9 14 3 40 9 58 15 17 5 32 7 32 3 0 -3 5 -1 12 6 19 19 36 14 54 -18
10 -17 35 -36 58 -45 31 -13 37 -19 25 -26 -7 -5 -9 -9 -4 -9 6 0 2 -5 -7 -10
-20 -12 -61 4 -95 38 -14 14 -30 20 -45 18 -13 -3 -23 -5 -23 -6 0 -1 -8 -3
-18 -5 -10 -2 -39 -9 -66 -16 -45 -11 -51 -11 -80 10 -19 14 -34 35 -38 52 -6
29 -6 29 -57 24 -28 -3 -70 -10 -93 -15 -48 -11 -70 -6 -78 20 -8 26 -32 43
-47 34 -7 -5 -19 -10 -25 -11 -85 -19 -235 -97 -256 -133 -10 -16 -15 -30 -10
-30 4 0 3 -4 -2 -8 -15 -10 -91 -204 -93 -235 0 -4 -6 -33 -13 -65 -6 -31 -13
-75 -15 -97 -5 -67 -5 -238 1 -267 3 -16 7 -40 11 -55 3 -16 6 -35 8 -43 1 -8
34 -31 72 -50 90 -45 121 -57 224 -85 78 -22 86 -22 98 -7 6 9 12 22 12 29 0
7 5 13 10 13 6 0 10 8 10 18 0 10 3 22 7 26 4 3 8 16 10 28 2 12 1 19 -3 16
-9 -10 -107 27 -112 42 -5 13 2 12 113 -4 11 -2 29 -7 40 -12 22 -10 241 -11
295 -2 19 3 61 13 92 23 32 9 59 16 60 15 2 -1 34 15 73 34 38 20 75 36 82 36
28 0 10 -26 -37 -55 -28 -16 -50 -32 -50 -36 0 -12 81 -109 91 -109 14 0 106
48 167 86 29 19 57 34 63 34 6 0 7 5 4 10 -3 6 1 10 9 10 8 0 22 10 31 23 8
12 18 21 21 19 11 -7 50 44 48 63 -2 11 -6 56 -9 100 -4 44 -9 83 -12 88 -3 5
-8 26 -10 46 -3 20 -9 41 -13 46 -4 6 -6 18 -5 28 2 9 -1 17 -6 17 -5 0 -9 8
-9 19 0 18 -31 94 -72 177 -11 23 -29 47 -40 55 -11 8 -29 22 -41 32 -15 13
-31 17 -53 12 -24 -4 -33 -1 -38 11 -8 20 1 34 20 34 8 0 17 6 20 14 8 22 64
-7 124 -64 28 -27 65 -46 82 -42 18 3 39 77 62 217 1 6 5 15 8 21 9 14 -19 54
-39 54 -9 0 -45 -11 -82 -24 -36 -13 -69 -24 -73 -25 -5 0 -10 -2 -13 -2 -21
-6 -32 -1 -48 19 -39 48 -113 65 -174 40 -37 -15 -50 -12 -87 23 -17 16 -35
29 -39 29 -5 0 -5 5 -2 10 3 6 -1 10 -9 10 -8 0 -21 8 -28 18 -17 24 -54 33
-68 17z"/>
<path d="M3375 3508 c-19 -15 -30 -18 -33 -10 -2 8 -9 9 -21 2 -10 -5 -22 -6
-27 -2 -5 4 -2 -1 5 -11 12 -15 11 -21 -6 -40 -11 -12 -29 -49 -40 -82 l-19
-60 24 -77 24 -76 69 50 c65 47 70 54 88 114 19 65 19 65 -2 139 -12 41 -25
75 -28 75 -4 0 -19 -10 -34 -22z"/>
<path d="M3417 3034 c-1 -1 -33 -4 -72 -8 -207 -19 -395 -104 -395 -178 0 -23
18 -59 37 -73 21 -16 -12 -58 -39 -49 -19 6 -79 -19 -120 -50 -25 -18 -110
-203 -146 -317 -38 -120 -61 -257 -64 -384 -3 -108 9 -274 20 -291 11 -17 251
-130 335 -158 117 -39 112 -41 166 56 36 66 38 78 13 78 -10 0 -22 3 -26 7 -4
5 -11 8 -14 9 -20 3 -82 35 -82 43 0 18 30 19 87 1 105 -32 211 -47 322 -45
118 3 159 8 246 31 67 18 72 20 168 63 61 27 97 32 97 12 0 -4 -29 -25 -65
-46 -39 -22 -62 -42 -58 -49 16 -27 68 -102 79 -114 7 -6 20 -12 28 -12 47 0
353 182 393 234 14 17 18 38 17 82 -3 70 -15 207 -19 214 -2 3 -6 23 -9 45
-10 61 -64 229 -98 304 -36 79 -108 205 -120 209 -4 2 -8 8 -8 13 0 6 -15 29
-32 52 -18 23 -33 43 -34 45 -1 1 -27 12 -59 23 -41 14 -61 17 -68 10 -13 -13
-47 -14 -47 -2 0 5 -7 11 -16 13 -14 2 -13 8 10 34 27 34 33 72 15 106 -9 17
-82 58 -114 64 -5 1 -36 7 -68 14 -46 9 -252 21 -260 14z"/>
<path d="M2293 2859 c-9 -24 -16 -30 -30 -25 -9 4 -14 4 -10 0 4 -4 0 -16 -10
-26 -15 -17 -15 -18 2 -18 13 0 16 -5 11 -25 -3 -14 1 -54 10 -90 14 -55 23
-70 60 -100 24 -20 51 -43 59 -52 9 -8 18 -13 21 -10 3 3 18 38 34 78 l28 72
-18 65 c-16 57 -26 72 -72 113 -29 27 -58 48 -63 49 -6 0 -16 -14 -22 -31z"/>
<path d="M1517 2704 c-1 -2 -29 -5 -62 -8 -65 -6 -86 -10 -157 -27 -40 -9 -55
-20 -111 -87 -82 -98 -136 -178 -191 -283 -39 -75 -97 -231 -111 -299 -17 -79
-24 -121 -30 -173 l-7 -57 51 -49 c28 -26 76 -68 108 -92 32 -24 60 -47 61
-51 2 -5 8 -8 14 -8 5 0 22 -8 36 -19 50 -35 124 -73 190 -97 57 -21 67 -22
75 -9 4 8 16 15 27 15 14 0 21 -12 30 -54 39 -189 291 -220 372 -45 12 27 22
36 40 35 18 -1 22 -6 20 -24 -4 -25 -1 -25 123 -23 59 1 98 7 190 26 64 13
198 60 265 93 35 17 39 27 56 122 3 19 7 37 9 41 16 25 23 315 10 398 -16 102
-29 161 -55 247 -48 156 -61 179 -125 219 -68 44 -234 125 -255 125 -8 0 -26
-16 -40 -35 -14 -19 -31 -35 -38 -35 -7 0 -45 9 -85 19 -81 22 -199 41 -249
41 -31 0 -34 4 -48 48 l-15 47 -48 0 c-27 0 -49 0 -50 -1z"/>
<path d="M3237 1465 c-20 -19 -27 -22 -27 -10 0 15 -12 11 -50 -13 -2 -2 2 -7
10 -13 13 -8 13 -11 -3 -23 -10 -8 -26 -43 -36 -79 -16 -55 -17 -71 -7 -101 7
-20 15 -39 19 -42 4 -4 7 -15 7 -24 0 -9 6 -24 13 -34 12 -16 18 -14 74 34 56
47 62 57 77 117 17 66 17 66 -10 139 -15 41 -29 74 -33 74 -3 0 -19 -11 -34
-25z"/>
</g>
</svg>
